<?xml version="1.0" standalone="no"?><!DOCTYPE svg PUBLIC "-//W3C//DTD SVG 1.1//EN" "http://www.w3.org/Graphics/SVG/1.1/DTD/svg11.dtd"><svg t="1584099723620" class="icon" viewBox="0 0 1024 1024" version="1.1" xmlns="http://www.w3.org/2000/svg" p-id="8567" xmlns:xlink="http://www.w3.org/1999/xlink" width="200" height="200"><defs><style type="text/css"></style></defs><path d="M512 1024C229.239467 1024 0 794.760533 0 512 0 229.239467 229.239467 0 512 0c282.760533 0 512 229.239467 512 512 0 282.760533-229.239467 512-512 512z m192.1024-578.082133h-25.838933a31.812267 31.812267 0 0 1-30.788267-28.808534c0-82.2272-66.2528-144.042667-149.026133-144.042666H422.912C340.206933 273.066667 273.134933 339.694933 273.066667 421.922133v163.328c0 82.193067 67.140267 148.7872 149.845333 148.7872h161.28c82.773333 0 149.674667-66.56 149.674667-148.821333v-105.472c0-16.418133-13.243733-33.792-29.764267-33.792z m-287.061333-57.617067h86.4256c15.837867 0 28.808533 12.970667 28.808533 28.808533 0 15.837867-12.970667 28.808533-28.808533 28.808534H417.109333a28.8768 28.8768 0 0 1-28.808533-28.808534c0-15.837867 12.970667-28.808533 28.808533-28.808533z m172.8512 230.468267h-172.817067a28.8768 28.8768 0 0 1-28.808533-28.808534c0-15.837867 12.970667-28.808533 28.808533-28.808533h172.817067c15.837867 0 28.7744 12.970667 28.7744 28.808533 0 15.837867-12.970667 28.808533-28.7744 28.808534z" fill="#1396DB" p-id="8568"></path></svg>