<?xml version="1.0" standalone="no"?><!DOCTYPE svg PUBLIC "-//W3C//DTD SVG 1.1//EN" "http://www.w3.org/Graphics/SVG/1.1/DTD/svg11.dtd"><svg t="1584793518614" class="icon" viewBox="0 0 1024 1024" version="1.1" xmlns="http://www.w3.org/2000/svg" p-id="4768" xmlns:xlink="http://www.w3.org/1999/xlink" width="200" height="200"><defs><style type="text/css"></style></defs><path d="M906.4 535.6c0 216.6-175.6 392.1-392.1 392.1S122.2 752.1 122.2 535.6s175.6-392.1 392.1-392.1S906.4 319 906.4 535.6" fill="#E4EDFF" p-id="4769"></path><path d="M132.4 466.9H75.2c-6.2 0-11.2-5-11.2-11.2 0-6.2 5-11.2 11.2-11.2h57.2c6.2 0 11.2 5 11.2 11.2 0 6.2-5 11.2-11.2 11.2" fill="#1A192B" p-id="4770"></path><path d="M948.8 466.98h-57.2c-6.2 0-11.2-5-11.2-11.2 0-6.2 5-11.2 11.2-11.2h57.2c6.2 0 11.2 5 11.2 11.2 0 6.2-5 11.2-11.2 11.2" fill="#1A192B" p-id="4771"></path><path d="M512 165.1h-0.2c-6.2-0.1-11.1-5.2-11-11.4l0.8-57.2c0.1-6.2 4.8-11.1 11.4-11 6.2 0.1 11.1 5.2 11 11.3l-0.8 57.2c-0.1 6.2-5.1 11.1-11.2 11.1M758.1 242.7c-2.9 0-5.8-1.1-8-3.3-4.4-4.4-4.3-11.5 0.1-15.9l40.6-40.3c4.4-4.3 11.5-4.3 15.9 0.1 4.4 4.4 4.3 11.5-0.1 15.9L766 239.5c-2.2 2.1-5 3.2-7.9 3.2M272.2 242.7c2.9 0 5.8-1.1 8-3.3 4.4-4.4 4.3-11.5-0.1-15.9l-40.6-40.3c-4.4-4.3-11.5-4.3-15.9 0.1-4.4 4.4-4.3 11.5 0.1 15.9l40.6 40.3c2.1 2.1 5 3.2 7.9 3.2" fill="#1A192B" p-id="4772"></path><path d="M708.4 869.3H328.9c-37.5 0-67.9-30.1-67.9-67.2V354c0-37.1 30.4-67.2 67.9-67.2h379.5c37.5 0 67.9 30.1 67.9 67.2v448.1c0 37.1-30.4 67.2-67.9 67.2" fill="#FFFFFF" p-id="4773"></path><path d="M332 295.3c-31.3 0-56.7 25.1-56.7 56v448.1c0 30.9 25.4 56 56.7 56h379.5c31.3 0 56.7-25.1 56.7-56V351.3c0-30.9-25.5-56-56.7-56H332z m379.5 582.6H332c-43.6 0-79.1-35.2-79.1-78.4V351.3c0-43.2 35.5-78.4 79.1-78.4h379.5c43.6 0 79.1 35.2 79.1 78.4v448.1c0 43.3-35.5 78.5-79.1 78.5z" fill="#1A192B" p-id="4774"></path><path d="M698.4 397.4H339.1c-6.2 0-11.2-5-11.2-11.2s5-11.2 11.2-11.2h359.3c6.2 0 11.2 5 11.2 11.2s-5.1 11.2-11.2 11.2M559.1 528.6h-220c-6.2 0-11.2-5-11.2-11.2 0-6.2 5-11.2 11.2-11.2h220.1c6.2 0 11.2 5 11.2 11.2-0.1 6.2-5.1 11.2-11.3 11.2M435.9 660.2h-96.8c-6.2 0-11.2-5-11.2-11.2 0-6.2 5-11.2 11.2-11.2H436c6.2 0 11.2 5 11.2 11.2-0.1 6.2-5.1 11.2-11.3 11.2" fill="#1A192B" p-id="4775"></path><path d="M583.4 743.9l258-258c10.5-10.5 10.5-27.8 0-38.3l-45.7-45.7c-10.5-10.5-27.8-10.5-38.3 0L501 658.2c-5.9 5.9-10.6 13-13.7 20.8l-37.6 94.6c-5 12.7 7.5 25.2 20.1 20.3l92.3-36.1c8.1-3.2 15.3-7.9 21.3-13.9" fill="#FFC000" p-id="4776"></path><path d="M777.3 408.5c-4.1 0-8.1 1.6-11.2 4.6L509.8 669.4c-4.9 4.9-8.6 10.6-11.2 17L461.1 781c-0.9 2.3 0.2 3.9 1 4.7 0.8 0.8 2.4 1.9 4.7 1l92.3-36.1c6.5-2.5 12.3-6.3 17.3-11.3l258-258c6.2-6.2 6.2-16.3 0-22.5l-45.7-45.7c-3.2-3-7.3-4.6-11.4-4.6M465 809.5c-6.9 0-13.6-2.7-18.8-7.9-7.6-7.7-9.9-18.7-5.9-28.8l37.6-94.6c3.7-9.3 9.1-17.5 16.2-24.6l256.2-256.2c14.9-14.9 39.2-14.9 54.2 0l45.7 45.7c14.9 14.9 14.9 39.2 0 54.2l-258 258c-7.1 7.1-15.5 12.6-24.9 16.3L475 807.7c-3.3 1.1-6.7 1.8-10 1.8" fill="#1A192B" p-id="4777"></path><path d="M566.9 765l-83.8-83.8 15.8-15.9 83.9 83.9zM789.7 542.2l-83.8-83.8 15.8-15.9 83.9 83.9z" fill="#1A192B" p-id="4778"></path></svg>